{"title":"The.Purge.2013.WEBRip.R6.XViD.AC3 - W00D","uid":8698365,"size":746061940,"categoryP":"video","categoryS":"movies","magnet":"?xt=urn:btih:887dbef2c1ae4da98e128a4deac747828df15b04&amp;dn=The.Purge.2013.WEBRip.R6.XViD.AC3+-+W00D&amp;tr=udp%3A%2F%2Ftracker.openbittorrent.com%3A80&amp;tr=udp%3A%2F%2Fopen.demonii.com%3A1337&amp;tr=udp%3A%2F%2Ftracker.coppersurfer.tk%3A6969&amp;tr=udp%3A%2F%2Fexodus.desync.com%3A6969","seeders":1,"leechers":0,"uploader":"hungry4momoney","files":5,"time":1374006757,"description":"A family is held hostage for harboring the target of a murderous syndicate during the Purge, a 12-hour period in which any and all crime is legalized\n\n\nGeneral Information\n Sample Included......: Yes\n Source...............: RMVB Chinese Low Bitrate\n Container............: AVi\n\n\nQuote:\n\nVideo\n ID                                       : 0\n Format                                   : MPEG-4 Visual\n Format profile                           : Advanced Simple@L5\n Format settings, BVOP                    : 2\n Format settings, QPel                    : No\n Format settings, GMC                     : No warppoints\n Format settings, Matrix                  : Default (H.263)\n Codec ID                                 : XVID\n Codec ID/Hint                            : XviD\n Duration                                 : 1h 25mn\n Bit rate                                 : 1 002 Kbps\n Width                                    : 704 pixels\n Height                                   : 304 pixels\n Display aspect ratio                     : 2.35:1\n Frame rate                               : 23.976 fps\n Color space                              : YUV\n Chroma subsampling                       : 4:2:0\n Bit depth                                : 8 bits\n Scan type                                : Progressive\n Compression mode                         : Lossy\n Bits/(Pixel*Frame)                       : 0.195\n Stream size                              : 611 MiB (88%)\n Writing library                          : XviD 1.2.1 (UTC 2008-12-04)\n\n Audio\n ID                                       : 1\n Format                                   : AC-3\n Format/Info                              : Audio Coding 3\n Mode extension                           : CM (complete main)\n Format settings, Endianness              : Big\n Codec ID                                 : 2000\n Duration                                 : 1h 25mn\n Bit rate mode                            : Constant\n Bit rate                                 : 128 Kbps\n Channel(s)                               : 2 channels\n Channel positions                        : Front: L R\n Sampling rate                            : 48.0 KHz\n Bit depth                                : 16 bits\n Compression mode                         : Lossy\n Stream size                              : 78.1 MiB (11%)\n Alignment                                : Aligned on interleaves\n Interleave, duration                     : 64 ms (1.53 video frames)\n Interleave, preload duration             : 192 ms\n Title                                    : The Purge 2013 R6 webrip \n\n\nsame","torrent":{"xt":"urn:btih:887dbef2c1ae4da98e128a4deac747828df15b04","amp;dn":"The.Purge.2013.WEBRip.R6.XViD.AC3+-+W00D","amp;tr":["udp%3A%2F%2Ftracker.openbittorrent.com%3A80","udp%3A%2F%2Fopen.demonii.com%3A1337","udp%3A%2F%2Ftracker.coppersurfer.tk%3A6969","udp%3A%2F%2Fexodus.desync.com%3A6969"],"infoHash":"887dbef2c1ae4da98e128a4deac747828df15b04","infoHashBuffer":{"type":"Buffer","data":[136,125,190,242,193,174,77,169,142,18,138,77,234,199,71,130,141,241,91,4]},"announce":[],"urlList":[]}}